<svg width="1922" height="5850" viewBox="0 0 1922 5850" fill="none" xmlns="http://www.w3.org/2000/svg">
<rect width="1922" height="5850" fill="#F5F5F5"/>
<g clip-path="url(#clip0_0_1)">
<rect width="1922" height="5850" fill="white"/>
<g filter="url(#filter0_f_0_1)">
<circle cx="364" cy="2493" r="317" fill="#FFD6D6"/>
</g>
<g filter="url(#filter1_f_0_1)">
<circle cx="241" cy="37" r="317" fill="#52BDAA"/>
</g>
<g filter="url(#filter2_f_0_1)">
<circle cx="1681" cy="587" r="317" fill="#54BE96"/>
</g>
<g filter="url(#filter3_f_0_1)">
<circle cx="1681" cy="3595" r="317" fill="#54BE96"/>
</g>
<g filter="url(#filter4_f_0_1)">
<circle cx="934" cy="536" r="317" fill="white"/>
</g>
<g filter="url(#filter5_f_0_1)">
<circle cx="1139" cy="-47" r="317" fill="#FFD6D6"/>
</g>
<path d="M375.558 5795.45C375.558 5794.77 375.726 5794.14 376.062 5793.58C376.399 5793.01 376.849 5792.56 377.411 5792.23C377.978 5791.89 378.604 5791.72 379.29 5791.72C379.887 5791.72 380.439 5791.85 380.946 5792.11C381.453 5792.37 381.873 5792.72 382.205 5793.17C382.538 5793.61 382.74 5794.12 382.812 5794.67H381.151C381.074 5794.28 380.857 5793.95 380.499 5793.7C380.145 5793.45 379.742 5793.32 379.29 5793.32C378.898 5793.32 378.54 5793.42 378.217 5793.61C377.893 5793.8 377.635 5794.06 377.443 5794.38C377.251 5794.7 377.156 5795.06 377.156 5795.45C377.156 5795.85 377.251 5796.2 377.443 5796.53C377.635 5796.85 377.893 5797.11 378.217 5797.3C378.54 5797.49 378.898 5797.59 379.29 5797.59C379.742 5797.59 380.128 5797.46 380.447 5797.21C380.767 5796.96 380.967 5796.63 381.048 5796.23H382.71C382.638 5796.79 382.444 5797.3 382.129 5797.74C381.813 5798.19 381.411 5798.54 380.92 5798.8C380.43 5799.06 379.887 5799.19 379.29 5799.19C378.604 5799.19 377.978 5799.02 377.411 5798.69C376.849 5798.35 376.399 5797.9 376.062 5797.33C375.726 5796.77 375.558 5796.14 375.558 5795.45ZM379.233 5802.2C378.304 5802.2 377.43 5802.03 376.612 5801.68C375.798 5801.33 375.08 5800.85 374.458 5800.23C373.84 5799.61 373.354 5798.89 373.001 5798.08C372.651 5797.26 372.479 5796.39 372.483 5795.45C372.487 5794.52 372.664 5793.65 373.013 5792.83C373.367 5792.02 373.853 5791.3 374.471 5790.69C375.089 5790.06 375.805 5789.58 376.619 5789.23C377.433 5788.88 378.304 5788.7 379.233 5788.7C380.166 5788.7 381.04 5788.88 381.854 5789.23C382.672 5789.58 383.388 5790.06 384.001 5790.69C384.619 5791.3 385.103 5792.02 385.452 5792.83C385.802 5793.65 385.979 5794.52 385.983 5795.45C385.987 5796.39 385.815 5797.26 385.465 5798.08C385.116 5798.89 384.632 5799.61 384.014 5800.23C383.396 5800.85 382.678 5801.33 381.86 5801.68C381.042 5802.03 380.166 5802.2 379.233 5802.2ZM379.233 5800.5C379.932 5800.5 380.588 5800.37 381.202 5800.11C381.815 5799.85 382.352 5799.49 382.812 5799.03C383.277 5798.57 383.639 5798.03 383.899 5797.42C384.159 5796.81 384.287 5796.16 384.283 5795.46C384.283 5794.76 384.151 5794.11 383.886 5793.49C383.626 5792.88 383.264 5792.34 382.8 5791.88C382.339 5791.42 381.805 5791.05 381.195 5790.79C380.586 5790.53 379.932 5790.4 379.233 5790.4C378.538 5790.4 377.886 5790.53 377.277 5790.79C376.668 5791.05 376.131 5791.42 375.666 5791.88C375.206 5792.35 374.844 5792.88 374.58 5793.5C374.315 5794.11 374.183 5794.76 374.183 5795.46C374.179 5796.15 374.307 5796.8 374.567 5797.42C374.831 5798.03 375.193 5798.56 375.653 5799.03C376.118 5799.49 376.655 5799.85 377.264 5800.11C377.878 5800.37 378.534 5800.5 379.233 5800.5ZM393.494 5802V5800.57L397.923 5795.98C398.396 5795.48 398.786 5795.04 399.093 5794.67C399.404 5794.29 399.636 5793.93 399.79 5793.59C399.943 5793.25 400.02 5792.88 400.02 5792.5C400.02 5792.07 399.918 5791.69 399.713 5791.38C399.509 5791.06 399.229 5790.81 398.876 5790.64C398.522 5790.47 398.124 5790.38 397.68 5790.38C397.212 5790.38 396.803 5790.48 396.453 5790.67C396.104 5790.86 395.835 5791.13 395.648 5791.48C395.46 5791.83 395.366 5792.24 395.366 5792.71H393.481C393.481 5791.91 393.664 5791.21 394.031 5790.62C394.397 5790.02 394.9 5789.56 395.539 5789.23C396.178 5788.9 396.905 5788.73 397.719 5788.73C398.541 5788.73 399.266 5788.89 399.892 5789.22C400.523 5789.55 401.015 5789.99 401.369 5790.55C401.722 5791.11 401.899 5791.74 401.899 5792.44C401.899 5792.93 401.808 5793.4 401.624 5793.87C401.445 5794.33 401.132 5794.85 400.685 5795.42C400.237 5795.99 399.615 5796.68 398.818 5797.49L396.217 5800.21V5800.31H402.11V5802H393.494ZM409.09 5802.22C408.08 5802.21 407.217 5801.95 406.501 5801.42C405.786 5800.89 405.238 5800.12 404.859 5799.11C404.479 5798.1 404.29 5796.88 404.29 5795.46C404.29 5794.04 404.479 5792.83 404.859 5791.82C405.242 5790.82 405.792 5790.05 406.508 5789.52C407.228 5788.99 408.089 5788.73 409.09 5788.73C410.092 5788.73 410.95 5789 411.666 5789.53C412.382 5790.06 412.93 5790.82 413.309 5791.83C413.692 5792.83 413.884 5794.04 413.884 5795.46C413.884 5796.89 413.695 5798.11 413.315 5799.12C412.936 5800.12 412.388 5800.89 411.673 5801.42C410.957 5801.95 410.096 5802.22 409.09 5802.22ZM409.09 5800.51C409.977 5800.51 410.669 5800.08 411.168 5799.21C411.67 5798.35 411.922 5797.1 411.922 5795.46C411.922 5794.37 411.807 5793.46 411.577 5792.71C411.351 5791.95 411.025 5791.38 410.599 5790.99C410.177 5790.6 409.674 5790.4 409.09 5790.4C408.208 5790.4 407.516 5790.84 407.013 5791.71C406.51 5792.58 406.256 5793.83 406.252 5795.46C406.252 5796.55 406.365 5797.47 406.591 5798.23C406.821 5798.98 407.147 5799.55 407.569 5799.94C407.991 5800.32 408.498 5800.51 409.09 5800.51ZM416.152 5802V5800.57L420.581 5795.98C421.055 5795.48 421.444 5795.04 421.751 5794.67C422.062 5794.29 422.295 5793.93 422.448 5793.59C422.601 5793.25 422.678 5792.88 422.678 5792.5C422.678 5792.07 422.576 5791.69 422.371 5791.38C422.167 5791.06 421.888 5790.81 421.534 5790.64C421.18 5790.47 420.782 5790.38 420.339 5790.38C419.87 5790.38 419.461 5790.48 419.111 5790.67C418.762 5790.86 418.493 5791.13 418.306 5791.48C418.118 5791.83 418.025 5792.24 418.025 5792.71H416.139C416.139 5791.91 416.322 5791.21 416.689 5790.62C417.055 5790.02 417.558 5789.56 418.197 5789.23C418.836 5788.9 419.563 5788.73 420.377 5788.73C421.199 5788.73 421.924 5788.89 422.55 5789.22C423.181 5789.55 423.673 5789.99 424.027 5790.55C424.381 5791.11 424.557 5791.74 424.557 5792.44C424.557 5792.93 424.466 5793.4 424.282 5793.87C424.104 5794.33 423.79 5794.85 423.343 5795.42C422.895 5795.99 422.273 5796.68 421.476 5797.49L418.875 5800.21V5800.31H424.768V5802H416.152ZM427.191 5802V5800.57L431.621 5795.98C432.094 5795.48 432.483 5795.04 432.79 5794.67C433.101 5794.29 433.334 5793.93 433.487 5793.59C433.64 5793.25 433.717 5792.88 433.717 5792.5C433.717 5792.07 433.615 5791.69 433.41 5791.38C433.206 5791.06 432.927 5790.81 432.573 5790.64C432.219 5790.47 431.821 5790.38 431.378 5790.38C430.909 5790.38 430.5 5790.48 430.15 5790.67C429.801 5790.86 429.532 5791.13 429.345 5791.48C429.157 5791.83 429.064 5792.24 429.064 5792.71H427.178C427.178 5791.91 427.361 5791.21 427.728 5790.62C428.094 5790.02 428.597 5789.56 429.236 5789.23C429.876 5788.9 430.602 5788.73 431.416 5788.73C432.238 5788.73 432.963 5788.89 433.589 5789.22C434.22 5789.55 434.712 5789.99 435.066 5790.55C435.42 5791.11 435.596 5791.74 435.596 5792.44C435.596 5792.93 435.505 5793.4 435.322 5793.87C435.143 5794.33 434.829 5794.85 434.382 5795.42C433.934 5795.99 433.312 5796.68 432.515 5797.49L429.914 5800.21V5800.31H435.807V5802H427.191ZM443.173 5802V5788.91H447.967C448.896 5788.91 449.665 5789.06 450.274 5789.37C450.884 5789.67 451.339 5790.08 451.642 5790.6C451.945 5791.12 452.096 5791.7 452.096 5792.35C452.096 5792.89 451.996 5793.35 451.795 5793.73C451.595 5794.1 451.327 5794.4 450.99 5794.62C450.658 5794.85 450.291 5795.01 449.891 5795.11V5795.24C450.325 5795.26 450.749 5795.4 451.163 5795.66C451.58 5795.91 451.925 5796.28 452.198 5796.75C452.471 5797.23 452.607 5797.8 452.607 5798.48C452.607 5799.15 452.45 5799.75 452.134 5800.28C451.823 5800.81 451.342 5801.23 450.69 5801.54C450.038 5801.85 449.205 5802 448.19 5802H443.173ZM445.148 5800.31H447.999C448.945 5800.31 449.622 5800.12 450.031 5799.76C450.44 5799.39 450.645 5798.93 450.645 5798.38C450.645 5797.97 450.54 5797.59 450.332 5797.24C450.123 5796.9 449.825 5796.62 449.437 5796.42C449.053 5796.22 448.597 5796.11 448.069 5796.11H445.148V5800.31ZM445.148 5794.57H447.794C448.237 5794.57 448.636 5794.49 448.989 5794.32C449.347 5794.15 449.631 5793.91 449.839 5793.6C450.053 5793.29 450.159 5792.92 450.159 5792.5C450.159 5791.96 449.969 5791.51 449.59 5791.14C449.211 5790.77 448.629 5790.59 447.845 5790.59H445.148V5794.57ZM454.797 5802V5792.18H456.708V5802H454.797ZM455.762 5790.67C455.429 5790.67 455.144 5790.56 454.905 5790.33C454.671 5790.11 454.554 5789.84 454.554 5789.53C454.554 5789.21 454.671 5788.95 454.905 5788.72C455.144 5788.5 455.429 5788.38 455.762 5788.38C456.094 5788.38 456.377 5788.5 456.612 5788.72C456.85 5788.95 456.97 5789.21 456.97 5789.53C456.97 5789.84 456.85 5790.11 456.612 5790.33C456.377 5790.56 456.094 5790.67 455.762 5790.67ZM463.415 5802.2C462.464 5802.2 461.646 5801.98 460.96 5801.55C460.278 5801.12 459.754 5800.52 459.388 5799.76C459.021 5798.99 458.838 5798.12 458.838 5797.14C458.838 5796.14 459.025 5795.26 459.4 5794.5C459.775 5793.73 460.304 5793.13 460.986 5792.7C461.667 5792.27 462.471 5792.05 463.395 5792.05C464.141 5792.05 464.806 5792.19 465.39 5792.47C465.974 5792.74 466.444 5793.13 466.802 5793.62C467.165 5794.11 467.38 5794.69 467.448 5795.35H465.588C465.486 5794.89 465.251 5794.5 464.885 5794.16C464.523 5793.83 464.037 5793.66 463.427 5793.66C462.895 5793.66 462.428 5793.81 462.028 5794.09C461.631 5794.36 461.322 5794.76 461.101 5795.28C460.879 5795.79 460.768 5796.39 460.768 5797.09C460.768 5797.81 460.877 5798.42 461.094 5798.94C461.312 5799.46 461.618 5799.87 462.015 5800.15C462.415 5800.44 462.886 5800.58 463.427 5800.58C463.79 5800.58 464.118 5800.51 464.412 5800.38C464.71 5800.25 464.959 5800.05 465.16 5799.8C465.364 5799.55 465.507 5799.25 465.588 5798.89H467.448C467.38 5799.53 467.173 5800.1 466.828 5800.59C466.483 5801.09 466.02 5801.48 465.441 5801.77C464.866 5802.06 464.19 5802.2 463.415 5802.2ZM473.627 5802.2C472.677 5802.2 471.859 5801.98 471.173 5801.55C470.491 5801.12 469.967 5800.52 469.6 5799.76C469.234 5798.99 469.051 5798.12 469.051 5797.14C469.051 5796.14 469.238 5795.26 469.613 5794.5C469.988 5793.73 470.517 5793.13 471.199 5792.7C471.88 5792.27 472.684 5792.05 473.608 5792.05C474.354 5792.05 475.019 5792.19 475.603 5792.47C476.186 5792.74 476.657 5793.13 477.015 5793.62C477.377 5794.11 477.593 5794.69 477.661 5795.35H475.801C475.699 5794.89 475.464 5794.5 475.098 5794.16C474.735 5793.83 474.25 5793.66 473.64 5793.66C473.108 5793.66 472.641 5793.81 472.24 5794.09C471.844 5794.36 471.535 5794.76 471.314 5795.28C471.092 5795.79 470.981 5796.39 470.981 5797.09C470.981 5797.81 471.09 5798.42 471.307 5798.94C471.525 5799.46 471.831 5799.87 472.228 5800.15C472.628 5800.44 473.099 5800.58 473.64 5800.58C474.002 5800.58 474.331 5800.51 474.625 5800.38C474.923 5800.25 475.172 5800.05 475.373 5799.8C475.577 5799.55 475.72 5799.25 475.801 5798.89H477.661C477.593 5799.53 477.386 5800.1 477.041 5800.59C476.696 5801.09 476.233 5801.48 475.654 5801.77C475.078 5802.06 474.403 5802.2 473.627 5802.2ZM482.562 5802.22C481.94 5802.22 481.377 5802.1 480.874 5801.87C480.372 5801.64 479.973 5801.3 479.679 5800.86C479.389 5800.41 479.244 5799.87 479.244 5799.23C479.244 5798.67 479.351 5798.22 479.564 5797.86C479.777 5797.5 480.065 5797.22 480.427 5797.01C480.789 5796.8 481.194 5796.64 481.642 5796.53C482.089 5796.43 482.545 5796.35 483.009 5796.29C483.597 5796.22 484.075 5796.17 484.441 5796.13C484.808 5796.08 485.074 5796 485.24 5795.9C485.406 5795.8 485.49 5795.63 485.49 5795.4V5795.36C485.49 5794.8 485.332 5794.37 485.017 5794.06C484.705 5793.75 484.241 5793.6 483.623 5793.6C482.98 5793.6 482.472 5793.74 482.102 5794.03C481.735 5794.31 481.482 5794.62 481.341 5794.97L479.545 5794.56C479.758 5793.96 480.069 5793.48 480.478 5793.12C480.892 5792.74 481.367 5792.48 481.904 5792.31C482.441 5792.14 483.005 5792.05 483.597 5792.05C483.99 5792.05 484.405 5792.1 484.844 5792.19C485.287 5792.28 485.7 5792.45 486.084 5792.69C486.472 5792.94 486.789 5793.28 487.036 5793.74C487.284 5794.18 487.407 5794.76 487.407 5795.48V5802H485.541V5800.66H485.464C485.34 5800.9 485.155 5801.15 484.908 5801.39C484.661 5801.62 484.343 5801.82 483.955 5801.98C483.568 5802.14 483.103 5802.22 482.562 5802.22ZM482.977 5800.68C483.506 5800.68 483.958 5800.58 484.333 5800.37C484.712 5800.16 484.999 5799.89 485.195 5799.55C485.396 5799.21 485.496 5798.85 485.496 5798.46V5797.19C485.428 5797.26 485.296 5797.33 485.1 5797.38C484.908 5797.44 484.688 5797.49 484.441 5797.53C484.194 5797.57 483.953 5797.61 483.719 5797.64C483.485 5797.67 483.289 5797.7 483.131 5797.72C482.76 5797.76 482.421 5797.84 482.115 5797.95C481.812 5798.06 481.569 5798.22 481.386 5798.43C481.207 5798.64 481.117 5798.91 481.117 5799.25C481.117 5799.72 481.292 5800.08 481.642 5800.33C481.991 5800.56 482.436 5800.68 482.977 5800.68ZM497.31 5794.58L495.578 5794.89C495.505 5794.66 495.39 5794.45 495.233 5794.25C495.079 5794.05 494.87 5793.89 494.606 5793.76C494.342 5793.63 494.012 5793.57 493.615 5793.57C493.074 5793.57 492.623 5793.69 492.26 5793.93C491.898 5794.17 491.717 5794.48 491.717 5794.86C491.717 5795.19 491.838 5795.45 492.081 5795.65C492.324 5795.85 492.716 5796.02 493.257 5796.14L494.817 5796.5C495.721 5796.71 496.394 5797.03 496.837 5797.47C497.28 5797.9 497.502 5798.47 497.502 5799.16C497.502 5799.75 497.331 5800.27 496.99 5800.73C496.654 5801.19 496.183 5801.55 495.578 5801.81C494.977 5802.07 494.28 5802.2 493.488 5802.2C492.388 5802.2 491.491 5801.96 490.797 5801.5C490.102 5801.02 489.676 5800.35 489.518 5799.48L491.365 5799.2C491.48 5799.68 491.717 5800.05 492.075 5800.29C492.433 5800.54 492.9 5800.66 493.475 5800.66C494.101 5800.66 494.602 5800.53 494.977 5800.27C495.352 5800 495.539 5799.68 495.539 5799.3C495.539 5799 495.424 5798.74 495.194 5798.53C494.968 5798.32 494.621 5798.16 494.152 5798.06L492.49 5797.69C491.574 5797.48 490.897 5797.15 490.458 5796.69C490.023 5796.24 489.806 5795.66 489.806 5794.96C489.806 5794.38 489.968 5793.88 490.292 5793.44C490.615 5793.01 491.063 5792.67 491.634 5792.42C492.205 5792.18 492.859 5792.05 493.596 5792.05C494.657 5792.05 495.493 5792.28 496.102 5792.74C496.711 5793.2 497.114 5793.81 497.31 5794.58ZM506.495 5788.91V5802H504.52V5788.91H506.495ZM511.13 5796.17V5802H509.218V5792.18H511.053V5793.78H511.174C511.4 5793.26 511.754 5792.84 512.235 5792.53C512.721 5792.21 513.333 5792.05 514.07 5792.05C514.739 5792.05 515.325 5792.19 515.828 5792.48C516.331 5792.75 516.721 5793.17 516.998 5793.72C517.275 5794.27 517.413 5794.95 517.413 5795.75V5802H515.502V5795.99C515.502 5795.27 515.316 5794.72 514.946 5794.32C514.575 5793.91 514.066 5793.71 513.418 5793.71C512.975 5793.71 512.581 5793.81 512.235 5794C511.895 5794.19 511.624 5794.47 511.424 5794.84C511.228 5795.21 511.13 5795.65 511.13 5796.17ZM524.112 5802.2C523.162 5802.2 522.343 5801.98 521.657 5801.55C520.975 5801.12 520.451 5800.52 520.085 5799.76C519.718 5798.99 519.535 5798.12 519.535 5797.14C519.535 5796.14 519.723 5795.26 520.098 5794.5C520.473 5793.73 521.001 5793.13 521.683 5792.7C522.365 5792.27 523.168 5792.05 524.093 5792.05C524.838 5792.05 525.503 5792.19 526.087 5792.47C526.671 5792.74 527.142 5793.13 527.5 5793.62C527.862 5794.11 528.077 5794.69 528.145 5795.35H526.285C526.183 5794.89 525.949 5794.5 525.582 5794.16C525.22 5793.83 524.734 5793.66 524.125 5793.66C523.592 5793.66 523.125 5793.81 522.725 5794.09C522.328 5794.36 522.02 5794.76 521.798 5795.28C521.576 5795.79 521.466 5796.39 521.466 5797.09C521.466 5797.81 521.574 5798.42 521.792 5798.94C522.009 5799.46 522.316 5799.87 522.712 5800.15C523.113 5800.44 523.583 5800.58 524.125 5800.58C524.487 5800.58 524.815 5800.51 525.109 5800.38C525.407 5800.25 525.657 5800.05 525.857 5799.8C526.061 5799.55 526.204 5799.25 526.285 5798.89H528.145C528.077 5799.53 527.87 5800.1 527.525 5800.59C527.18 5801.09 526.718 5801.48 526.138 5801.77C525.563 5802.06 524.887 5802.2 524.112 5802.2ZM531.448 5802.12C531.099 5802.12 530.798 5802 530.547 5801.75C530.296 5801.5 530.17 5801.2 530.17 5800.84C530.17 5800.49 530.296 5800.2 530.547 5799.95C530.798 5799.7 531.099 5799.57 531.448 5799.57C531.798 5799.57 532.098 5799.7 532.35 5799.95C532.601 5800.2 532.727 5800.49 532.727 5800.84C532.727 5801.08 532.667 5801.29 532.548 5801.49C532.433 5801.68 532.279 5801.83 532.088 5801.95C531.896 5802.06 531.683 5802.12 531.448 5802.12ZM550.866 5793.17H548.871C548.795 5792.74 548.652 5792.37 548.443 5792.04C548.234 5791.72 547.979 5791.44 547.676 5791.22C547.374 5790.99 547.035 5790.82 546.66 5790.71C546.289 5790.59 545.895 5790.53 545.477 5790.53C544.723 5790.53 544.048 5790.72 543.451 5791.1C542.859 5791.48 542.39 5792.04 542.045 5792.77C541.704 5793.5 541.533 5794.4 541.533 5795.45C541.533 5796.52 541.704 5797.42 542.045 5798.15C542.39 5798.88 542.861 5799.44 543.457 5799.81C544.054 5800.19 544.725 5800.38 545.471 5800.38C545.884 5800.38 546.276 5800.32 546.647 5800.21C547.022 5800.1 547.361 5799.93 547.663 5799.71C547.966 5799.48 548.222 5799.21 548.43 5798.89C548.643 5798.57 548.79 5798.2 548.871 5797.78L550.866 5797.79C550.759 5798.43 550.553 5799.02 550.246 5799.56C549.943 5800.1 549.553 5800.57 549.076 5800.96C548.603 5801.35 548.062 5801.65 547.452 5801.86C546.843 5802.07 546.178 5802.18 545.458 5802.18C544.325 5802.18 543.315 5801.91 542.428 5801.37C541.542 5800.83 540.843 5800.06 540.332 5799.05C539.825 5798.05 539.571 5796.85 539.571 5795.45C539.571 5794.06 539.827 5792.86 540.338 5791.86C540.849 5790.85 541.548 5790.08 542.435 5789.54C543.321 5789 544.329 5788.73 545.458 5788.73C546.153 5788.73 546.8 5788.83 547.401 5789.03C548.006 5789.23 548.55 5789.52 549.031 5789.9C549.513 5790.28 549.911 5790.74 550.227 5791.29C550.542 5791.84 550.755 5792.46 550.866 5793.17ZM557.211 5802.2C556.291 5802.2 555.488 5801.99 554.802 5801.57C554.116 5801.14 553.583 5800.55 553.204 5799.79C552.824 5799.04 552.635 5798.15 552.635 5797.14C552.635 5796.12 552.824 5795.23 553.204 5794.46C553.583 5793.7 554.116 5793.11 554.802 5792.69C555.488 5792.26 556.291 5792.05 557.211 5792.05C558.132 5792.05 558.935 5792.26 559.621 5792.69C560.307 5793.11 560.84 5793.7 561.219 5794.46C561.599 5795.23 561.788 5796.12 561.788 5797.14C561.788 5798.15 561.599 5799.04 561.219 5799.79C560.84 5800.55 560.307 5801.14 559.621 5801.57C558.935 5801.99 558.132 5802.2 557.211 5802.2ZM557.218 5800.59C557.814 5800.59 558.309 5800.44 558.701 5800.12C559.093 5799.81 559.383 5799.39 559.57 5798.86C559.762 5798.34 559.858 5797.76 559.858 5797.13C559.858 5796.5 559.762 5795.93 559.57 5795.4C559.383 5794.87 559.093 5794.45 558.701 5794.13C558.309 5793.81 557.814 5793.65 557.218 5793.65C556.617 5793.65 556.118 5793.81 555.722 5794.13C555.33 5794.45 555.038 5794.87 554.846 5795.4C554.659 5795.93 554.565 5796.5 554.565 5797.13C554.565 5797.76 554.659 5798.34 554.846 5798.86C555.038 5799.39 555.33 5799.81 555.722 5800.12C556.118 5800.44 556.617 5800.59 557.218 5800.59ZM563.922 5805.68V5792.18H565.788V5793.77H565.948C566.059 5793.57 566.218 5793.33 566.427 5793.06C566.636 5792.8 566.926 5792.56 567.297 5792.36C567.667 5792.16 568.157 5792.05 568.767 5792.05C569.559 5792.05 570.267 5792.25 570.889 5792.65C571.511 5793.06 571.999 5793.63 572.353 5794.39C572.711 5795.14 572.89 5796.05 572.89 5797.11C572.89 5798.17 572.713 5799.08 572.359 5799.84C572.005 5800.59 571.52 5801.18 570.902 5801.58C570.284 5801.99 569.578 5802.19 568.786 5802.19C568.189 5802.19 567.701 5802.09 567.322 5801.89C566.947 5801.69 566.653 5801.46 566.44 5801.19C566.227 5800.92 566.063 5800.68 565.948 5800.47H565.833V5805.68H563.922ZM565.794 5797.09C565.794 5797.78 565.895 5798.39 566.095 5798.91C566.295 5799.43 566.585 5799.83 566.964 5800.13C567.343 5800.42 567.808 5800.56 568.358 5800.56C568.929 5800.56 569.406 5800.41 569.789 5800.11C570.173 5799.8 570.463 5799.39 570.659 5798.86C570.859 5798.34 570.959 5797.75 570.959 5797.09C570.959 5796.44 570.861 5795.86 570.665 5795.35C570.473 5794.83 570.184 5794.42 569.796 5794.12C569.412 5793.83 568.933 5793.68 568.358 5793.68C567.804 5793.68 567.335 5793.82 566.951 5794.11C566.572 5794.39 566.284 5794.79 566.088 5795.3C565.892 5795.81 565.794 5796.41 565.794 5797.09ZM575.905 5805.68C575.619 5805.68 575.36 5805.66 575.125 5805.61C574.891 5805.57 574.716 5805.52 574.601 5805.47L575.061 5803.9C575.411 5804 575.722 5804.04 575.994 5804.03C576.267 5804.01 576.508 5803.91 576.717 5803.72C576.93 5803.53 577.117 5803.21 577.279 5802.78L577.516 5802.13L573.923 5792.18H575.969L578.455 5799.8H578.558L581.044 5792.18H583.096L579.05 5803.31C578.862 5803.82 578.624 5804.25 578.334 5804.61C578.044 5804.97 577.699 5805.23 577.298 5805.41C576.898 5805.59 576.433 5805.68 575.905 5805.68ZM584.892 5802V5792.18H586.74V5793.74H586.842C587.021 5793.21 587.336 5792.8 587.788 5792.5C588.244 5792.19 588.759 5792.03 589.335 5792.03C589.454 5792.03 589.595 5792.04 589.757 5792.05C589.923 5792.06 590.053 5792.07 590.146 5792.08V5793.91C590.07 5793.89 589.933 5793.86 589.737 5793.84C589.541 5793.81 589.345 5793.79 589.149 5793.79C588.698 5793.79 588.295 5793.89 587.941 5794.08C587.592 5794.27 587.315 5794.53 587.11 5794.87C586.906 5795.2 586.803 5795.58 586.803 5796V5802H584.892ZM591.8 5802V5792.18H593.712V5802H591.8ZM592.766 5790.67C592.433 5790.67 592.148 5790.56 591.909 5790.33C591.675 5790.11 591.558 5789.84 591.558 5789.53C591.558 5789.21 591.675 5788.95 591.909 5788.72C592.148 5788.5 592.433 5788.38 592.766 5788.38C593.098 5788.38 593.381 5788.5 593.616 5788.72C593.854 5788.95 593.974 5789.21 593.974 5789.53C593.974 5789.84 593.854 5790.11 593.616 5790.33C593.381 5790.56 593.098 5790.67 592.766 5790.67ZM600.399 5805.89C599.619 5805.89 598.948 5805.78 598.386 5805.58C597.828 5805.38 597.372 5805.1 597.018 5804.77C596.664 5804.43 596.4 5804.06 596.225 5803.66L597.868 5802.98C597.983 5803.17 598.137 5803.37 598.328 5803.58C598.524 5803.79 598.789 5803.97 599.121 5804.12C599.458 5804.27 599.89 5804.35 600.419 5804.35C601.143 5804.35 601.742 5804.17 602.215 5803.82C602.688 5803.47 602.924 5802.91 602.924 5802.14V5800.21H602.803C602.688 5800.42 602.521 5800.65 602.304 5800.91C602.091 5801.16 601.797 5801.38 601.422 5801.57C601.047 5801.76 600.559 5801.85 599.958 5801.85C599.183 5801.85 598.484 5801.67 597.862 5801.31C597.244 5800.94 596.754 5800.4 596.392 5799.69C596.034 5798.98 595.855 5798.1 595.855 5797.05C595.855 5796.01 596.031 5795.11 596.385 5794.37C596.743 5793.62 597.233 5793.05 597.855 5792.65C598.477 5792.25 599.183 5792.05 599.971 5792.05C600.58 5792.05 601.073 5792.16 601.448 5792.36C601.823 5792.56 602.115 5792.8 602.323 5793.06C602.536 5793.33 602.7 5793.57 602.816 5793.77H602.956V5792.18H604.829V5802.22C604.829 5803.06 604.633 5803.75 604.241 5804.29C603.849 5804.84 603.318 5805.24 602.649 5805.5C601.985 5805.76 601.235 5805.89 600.399 5805.89ZM600.38 5800.27C600.93 5800.27 601.394 5800.14 601.774 5799.88C602.157 5799.62 602.447 5799.25 602.643 5798.77C602.843 5798.29 602.943 5797.7 602.943 5797.03C602.943 5796.37 602.845 5795.78 602.649 5795.28C602.453 5794.78 602.166 5794.39 601.786 5794.11C601.407 5793.82 600.938 5793.68 600.38 5793.68C599.805 5793.68 599.325 5793.83 598.942 5794.12C598.558 5794.42 598.269 5794.82 598.073 5795.33C597.881 5795.83 597.785 5796.4 597.785 5797.03C597.785 5797.67 597.883 5798.24 598.079 5798.72C598.275 5799.21 598.565 5799.59 598.948 5799.86C599.336 5800.13 599.813 5800.27 600.38 5800.27ZM609.303 5796.17V5802H607.392V5788.91H609.278V5793.78H609.399C609.629 5793.25 609.981 5792.83 610.454 5792.52C610.927 5792.21 611.545 5792.05 612.308 5792.05C612.981 5792.05 613.569 5792.19 614.072 5792.47C614.579 5792.75 614.971 5793.16 615.248 5793.71C615.529 5794.25 615.67 5794.94 615.67 5795.75V5802H613.759V5795.99C613.759 5795.26 613.573 5794.71 613.203 5794.31C612.832 5793.91 612.316 5793.71 611.656 5793.71C611.204 5793.71 610.799 5793.81 610.441 5794C610.088 5794.19 609.808 5794.47 609.604 5794.84C609.404 5795.21 609.303 5795.65 609.303 5796.17ZM622.803 5792.18V5793.72H617.441V5792.18H622.803ZM618.879 5789.83H620.79V5799.12C620.79 5799.49 620.845 5799.77 620.956 5799.95C621.067 5800.14 621.21 5800.26 621.384 5800.33C621.563 5800.4 621.757 5800.43 621.966 5800.43C622.119 5800.43 622.254 5800.42 622.369 5800.4C622.484 5800.37 622.573 5800.36 622.637 5800.34L622.982 5801.92C622.872 5801.97 622.714 5802.01 622.509 5802.05C622.305 5802.1 622.049 5802.12 621.742 5802.13C621.24 5802.14 620.771 5802.05 620.336 5801.86C619.901 5801.67 619.55 5801.38 619.281 5800.99C619.013 5800.6 618.879 5800.11 618.879 5799.51V5789.83ZM632.539 5802.22C631.916 5802.22 631.354 5802.1 630.851 5801.87C630.348 5801.64 629.95 5801.3 629.656 5800.86C629.366 5800.41 629.221 5799.87 629.221 5799.23C629.221 5798.67 629.328 5798.22 629.541 5797.86C629.754 5797.5 630.041 5797.22 630.404 5797.01C630.766 5796.8 631.171 5796.64 631.618 5796.53C632.066 5796.43 632.521 5796.35 632.986 5796.29C633.574 5796.22 634.051 5796.17 634.418 5796.13C634.784 5796.08 635.051 5796 635.217 5795.9C635.383 5795.8 635.466 5795.63 635.466 5795.4V5795.36C635.466 5794.8 635.308 5794.37 634.993 5794.06C634.682 5793.75 634.218 5793.6 633.6 5793.6C632.956 5793.6 632.449 5793.74 632.078 5794.03C631.712 5794.31 631.458 5794.62 631.318 5794.97L629.521 5794.56C629.735 5793.96 630.046 5793.48 630.455 5793.12C630.868 5792.74 631.343 5792.48 631.88 5792.31C632.417 5792.14 632.982 5792.05 633.574 5792.05C633.966 5792.05 634.382 5792.1 634.82 5792.19C635.264 5792.28 635.677 5792.45 636.061 5792.69C636.448 5792.94 636.766 5793.28 637.013 5793.74C637.26 5794.18 637.384 5794.76 637.384 5795.48V5802H635.517V5800.66H635.441C635.317 5800.9 635.132 5801.15 634.884 5801.39C634.637 5801.62 634.32 5801.82 633.932 5801.98C633.544 5802.14 633.08 5802.22 632.539 5802.22ZM632.954 5800.68C633.482 5800.68 633.934 5800.58 634.309 5800.37C634.688 5800.16 634.976 5799.89 635.172 5799.55C635.372 5799.21 635.472 5798.85 635.472 5798.46V5797.19C635.404 5797.26 635.272 5797.33 635.076 5797.38C634.884 5797.44 634.665 5797.49 634.418 5797.53C634.171 5797.57 633.93 5797.61 633.695 5797.64C633.461 5797.67 633.265 5797.7 633.107 5797.72C632.737 5797.76 632.398 5797.84 632.091 5797.95C631.789 5798.06 631.546 5798.22 631.362 5798.43C631.183 5798.64 631.094 5798.91 631.094 5799.25C631.094 5799.72 631.269 5800.08 631.618 5800.33C631.968 5800.56 632.413 5800.68 632.954 5800.68ZM641.841 5796.17V5802H639.929V5792.18H641.764V5793.78H641.885C642.111 5793.26 642.465 5792.84 642.946 5792.53C643.432 5792.21 644.044 5792.05 644.781 5792.05C645.45 5792.05 646.036 5792.19 646.539 5792.48C647.042 5792.75 647.431 5793.17 647.708 5793.72C647.985 5794.27 648.124 5794.95 648.124 5795.75V5802H646.213V5795.99C646.213 5795.27 646.027 5794.72 645.657 5794.32C645.286 5793.91 644.777 5793.71 644.129 5793.71C643.686 5793.71 643.292 5793.81 642.946 5794C642.605 5794.19 642.335 5794.47 642.135 5794.84C641.939 5795.21 641.841 5795.65 641.841 5796.17ZM654.363 5802.19C653.57 5802.19 652.863 5801.99 652.24 5801.58C651.623 5801.18 651.137 5800.59 650.783 5799.84C650.434 5799.08 650.259 5798.17 650.259 5797.11C650.259 5796.05 650.436 5795.14 650.789 5794.39C651.147 5793.63 651.637 5793.06 652.26 5792.65C652.882 5792.25 653.587 5792.05 654.375 5792.05C654.985 5792.05 655.475 5792.16 655.846 5792.36C656.221 5792.56 656.51 5792.8 656.715 5793.06C656.924 5793.33 657.086 5793.57 657.201 5793.77H657.316V5788.91H659.227V5802H657.36V5800.47H657.201C657.086 5800.68 656.919 5800.92 656.702 5801.19C656.489 5801.46 656.195 5801.69 655.82 5801.89C655.445 5802.09 654.959 5802.19 654.363 5802.19ZM654.784 5800.56C655.334 5800.56 655.799 5800.42 656.178 5800.13C656.561 5799.83 656.851 5799.43 657.047 5798.91C657.248 5798.39 657.348 5797.78 657.348 5797.09C657.348 5796.41 657.25 5795.81 657.054 5795.3C656.858 5794.79 656.57 5794.39 656.191 5794.11C655.811 5793.82 655.343 5793.68 654.784 5793.68C654.209 5793.68 653.73 5793.83 653.346 5794.12C652.963 5794.42 652.673 5794.83 652.477 5795.35C652.285 5795.86 652.189 5796.44 652.189 5797.09C652.189 5797.75 652.287 5798.34 652.483 5798.86C652.679 5799.39 652.969 5799.8 653.353 5800.11C653.74 5800.41 654.218 5800.56 654.784 5800.56ZM666.718 5802V5792.18H668.566V5793.74H668.668C668.847 5793.21 669.162 5792.8 669.614 5792.5C670.07 5792.19 670.586 5792.03 671.161 5792.03C671.28 5792.03 671.421 5792.04 671.583 5792.05C671.749 5792.06 671.879 5792.07 671.973 5792.08V5793.91C671.896 5793.89 671.76 5793.86 671.564 5793.84C671.368 5793.81 671.172 5793.79 670.975 5793.79C670.524 5793.79 670.121 5793.89 669.767 5794.08C669.418 5794.27 669.141 5794.53 668.936 5794.87C668.732 5795.2 668.63 5795.58 668.63 5796V5802H666.718ZM673.627 5802V5792.18H675.538V5802H673.627ZM674.592 5790.67C674.259 5790.67 673.974 5790.56 673.735 5790.33C673.501 5790.11 673.384 5789.84 673.384 5789.53C673.384 5789.21 673.501 5788.95 673.735 5788.72C673.974 5788.5 674.259 5788.38 674.592 5788.38C674.924 5788.38 675.208 5788.5 675.442 5788.72C675.681 5788.95 675.8 5789.21 675.8 5789.53C675.8 5789.84 675.681 5790.11 675.442 5790.33C675.208 5790.56 674.924 5790.67 674.592 5790.67ZM682.225 5805.89C681.446 5805.89 680.775 5805.78 680.212 5805.58C679.654 5805.38 679.198 5805.1 678.844 5804.77C678.49 5804.43 678.226 5804.06 678.051 5803.66L679.694 5802.98C679.809 5803.17 679.963 5803.37 680.154 5803.58C680.35 5803.79 680.615 5803.97 680.947 5804.12C681.284 5804.27 681.716 5804.35 682.245 5804.35C682.969 5804.35 683.568 5804.17 684.041 5803.82C684.514 5803.47 684.75 5802.91 684.75 5802.14V5800.21H684.629C684.514 5800.42 684.348 5800.65 684.13 5800.91C683.917 5801.16 683.623 5801.38 683.248 5801.57C682.873 5801.76 682.385 5801.85 681.784 5801.85C681.009 5801.85 680.31 5801.67 679.688 5801.31C679.07 5800.94 678.58 5800.4 678.218 5799.69C677.86 5798.98 677.681 5798.1 677.681 5797.05C677.681 5796.01 677.858 5795.11 678.211 5794.37C678.569 5793.62 679.059 5793.05 679.681 5792.65C680.304 5792.25 681.009 5792.05 681.797 5792.05C682.407 5792.05 682.899 5792.16 683.274 5792.36C683.649 5792.56 683.941 5792.8 684.15 5793.06C684.363 5793.33 684.527 5793.57 684.642 5793.77H684.782V5792.18H686.655V5802.22C686.655 5803.06 686.459 5803.75 686.067 5804.29C685.675 5804.84 685.145 5805.24 684.475 5805.5C683.811 5805.76 683.061 5805.89 682.225 5805.89ZM682.206 5800.27C682.756 5800.27 683.221 5800.14 683.6 5799.88C683.983 5799.62 684.273 5799.25 684.469 5798.77C684.669 5798.29 684.77 5797.7 684.77 5797.03C684.77 5796.37 684.672 5795.78 684.475 5795.28C684.279 5794.78 683.992 5794.39 683.613 5794.11C683.233 5793.82 682.765 5793.68 682.206 5793.68C681.631 5793.68 681.152 5793.83 680.768 5794.12C680.385 5794.42 680.095 5794.82 679.899 5795.33C679.707 5795.83 679.611 5796.4 679.611 5797.03C679.611 5797.67 679.709 5798.24 679.905 5798.72C680.101 5799.21 680.391 5799.59 680.775 5799.86C681.162 5800.13 681.64 5800.27 682.206 5800.27ZM691.13 5796.17V5802H689.218V5788.91H691.104V5793.78H691.225C691.456 5793.25 691.807 5792.83 692.28 5792.52C692.753 5792.21 693.371 5792.05 694.134 5792.05C694.807 5792.05 695.395 5792.19 695.898 5792.47C696.405 5792.75 696.797 5793.16 697.074 5793.71C697.355 5794.25 697.496 5794.94 697.496 5795.75V5802H695.585V5795.99C695.585 5795.26 695.4 5794.71 695.029 5794.31C694.658 5793.91 694.142 5793.71 693.482 5793.71C693.03 5793.71 692.625 5793.81 692.267 5794C691.914 5794.19 691.635 5794.47 691.43 5794.84C691.23 5795.21 691.13 5795.65 691.13 5796.17ZM704.63 5792.18V5793.72H699.267V5792.18H704.63ZM700.705 5789.83H702.616V5799.12C702.616 5799.49 702.672 5799.77 702.782 5799.95C702.893 5800.14 703.036 5800.26 703.211 5800.33C703.39 5800.4 703.583 5800.43 703.792 5800.43C703.946 5800.43 704.08 5800.42 704.195 5800.4C704.31 5800.37 704.4 5800.36 704.463 5800.34L704.809 5801.92C704.698 5801.97 704.54 5802.01 704.336 5802.05C704.131 5802.1 703.875 5802.12 703.569 5802.13C703.066 5802.14 702.597 5802.05 702.162 5801.86C701.728 5801.67 701.376 5801.38 701.108 5800.99C700.839 5800.6 700.705 5800.11 700.705 5799.51V5789.83ZM713.943 5794.58L712.211 5794.89C712.138 5794.66 712.023 5794.45 711.865 5794.25C711.712 5794.05 711.503 5793.89 711.239 5793.76C710.975 5793.63 710.645 5793.57 710.248 5793.57C709.707 5793.57 709.255 5793.69 708.893 5793.93C708.531 5794.17 708.35 5794.48 708.35 5794.86C708.35 5795.19 708.471 5795.45 708.714 5795.65C708.957 5795.85 709.349 5796.02 709.89 5796.14L711.45 5796.5C712.353 5796.71 713.027 5797.03 713.47 5797.47C713.913 5797.9 714.135 5798.47 714.135 5799.16C714.135 5799.75 713.964 5800.27 713.623 5800.73C713.287 5801.19 712.816 5801.55 712.211 5801.81C711.61 5802.07 710.913 5802.2 710.12 5802.2C709.021 5802.2 708.124 5801.96 707.429 5801.5C706.735 5801.02 706.309 5800.35 706.151 5799.48L707.998 5799.2C708.113 5799.68 708.35 5800.05 708.708 5800.29C709.066 5800.54 709.532 5800.66 710.108 5800.66C710.734 5800.66 711.235 5800.53 711.61 5800.27C711.985 5800 712.172 5799.68 712.172 5799.3C712.172 5799 712.057 5798.74 711.827 5798.53C711.601 5798.32 711.254 5798.16 710.785 5798.06L709.123 5797.69C708.207 5797.48 707.529 5797.15 707.091 5796.69C706.656 5796.24 706.439 5795.66 706.439 5794.96C706.439 5794.38 706.6 5793.88 706.924 5793.44C707.248 5793.01 707.696 5792.67 708.267 5792.42C708.838 5792.18 709.492 5792.05 710.229 5792.05C711.29 5792.05 712.125 5792.28 712.735 5792.74C713.344 5793.2 713.747 5793.81 713.943 5794.58ZM721 5802V5792.18H722.847V5793.74H722.949C723.128 5793.21 723.444 5792.8 723.895 5792.5C724.351 5792.19 724.867 5792.03 725.442 5792.03C725.561 5792.03 725.702 5792.04 725.864 5792.05C726.03 5792.06 726.16 5792.07 726.254 5792.08V5793.91C726.177 5793.89 726.041 5793.86 725.845 5793.84C725.649 5793.81 725.453 5793.79 725.257 5793.79C724.805 5793.79 724.402 5793.89 724.049 5794.08C723.699 5794.27 723.422 5794.53 723.218 5794.87C723.013 5795.2 722.911 5795.58 722.911 5796V5802H721ZM731.788 5802.2C730.82 5802.2 729.987 5801.99 729.289 5801.58C728.594 5801.16 728.057 5800.57 727.678 5799.82C727.303 5799.06 727.115 5798.17 727.115 5797.15C727.115 5796.15 727.303 5795.26 727.678 5794.5C728.057 5793.73 728.585 5793.13 729.263 5792.7C729.945 5792.27 730.742 5792.05 731.654 5792.05C732.208 5792.05 732.744 5792.15 733.264 5792.33C733.784 5792.51 734.251 5792.8 734.664 5793.19C735.078 5793.58 735.404 5794.09 735.642 5794.72C735.881 5795.34 736 5796.1 736 5796.99V5797.67H728.195V5796.23H734.127C734.127 5795.73 734.025 5795.29 733.82 5794.9C733.616 5794.51 733.328 5794.2 732.958 5793.97C732.591 5793.75 732.161 5793.63 731.666 5793.63C731.129 5793.63 730.661 5793.76 730.26 5794.03C729.864 5794.29 729.557 5794.63 729.34 5795.05C729.127 5795.47 729.02 5795.92 729.02 5796.41V5797.53C729.02 5798.19 729.135 5798.75 729.365 5799.21C729.6 5799.67 729.926 5800.02 730.343 5800.26C730.761 5800.5 731.249 5800.62 731.807 5800.62C732.169 5800.62 732.499 5800.57 732.798 5800.47C733.096 5800.36 733.354 5800.2 733.571 5799.99C733.789 5799.78 733.955 5799.53 734.07 5799.22L735.879 5799.55C735.734 5800.08 735.474 5800.54 735.099 5800.95C734.728 5801.34 734.262 5801.65 733.699 5801.87C733.141 5802.09 732.504 5802.2 731.788 5802.2ZM745.478 5794.58L743.746 5794.89C743.673 5794.66 743.558 5794.45 743.401 5794.25C743.247 5794.05 743.038 5793.89 742.774 5793.76C742.51 5793.63 742.18 5793.57 741.783 5793.57C741.242 5793.57 740.79 5793.69 740.428 5793.93C740.066 5794.17 739.885 5794.48 739.885 5794.86C739.885 5795.19 740.006 5795.45 740.249 5795.65C740.492 5795.85 740.884 5796.02 741.425 5796.14L742.985 5796.5C743.888 5796.71 744.562 5797.03 745.005 5797.47C745.448 5797.9 745.67 5798.47 745.67 5799.16C745.67 5799.75 745.499 5800.27 745.158 5800.73C744.822 5801.19 744.351 5801.55 743.746 5801.81C743.145 5802.07 742.448 5802.2 741.656 5802.2C740.556 5802.2 739.659 5801.96 738.964 5801.5C738.27 5801.02 737.844 5800.35 737.686 5799.48L739.533 5799.2C739.648 5799.68 739.885 5800.05 740.243 5800.29C740.601 5800.54 741.067 5800.66 741.643 5800.66C742.269 5800.66 742.77 5800.53 743.145 5800.27C743.52 5800 743.707 5799.68 743.707 5799.3C743.707 5799 743.592 5798.74 743.362 5798.53C743.136 5798.32 742.789 5798.16 742.32 5798.06L740.658 5797.69C739.742 5797.48 739.065 5797.15 738.626 5796.69C738.191 5796.24 737.974 5795.66 737.974 5794.96C737.974 5794.38 738.136 5793.88 738.46 5793.44C738.783 5793.01 739.231 5792.67 739.802 5792.42C740.373 5792.18 741.027 5792.05 741.764 5792.05C742.825 5792.05 743.661 5792.28 744.27 5792.74C744.879 5793.2 745.282 5793.81 745.478 5794.58ZM752.003 5802.2C751.035 5802.2 750.202 5801.99 749.503 5801.58C748.809 5801.16 748.272 5800.57 747.893 5799.82C747.518 5799.06 747.33 5798.17 747.33 5797.15C747.33 5796.15 747.518 5795.26 747.893 5794.5C748.272 5793.73 748.8 5793.13 749.478 5792.7C750.16 5792.27 750.956 5792.05 751.868 5792.05C752.422 5792.05 752.959 5792.15 753.479 5792.33C753.999 5792.51 754.466 5792.8 754.879 5793.19C755.292 5793.58 755.618 5794.09 755.857 5794.72C756.096 5795.34 756.215 5796.1 756.215 5796.99V5797.67H748.41V5796.23H754.342C754.342 5795.73 754.24 5795.29 754.035 5794.9C753.831 5794.51 753.543 5794.2 753.172 5793.97C752.806 5793.75 752.376 5793.63 751.881 5793.63C751.344 5793.63 750.876 5793.76 750.475 5794.03C750.079 5794.29 749.772 5794.63 749.555 5795.05C749.341 5795.47 749.235 5795.92 749.235 5796.41V5797.53C749.235 5798.19 749.35 5798.75 749.58 5799.21C749.814 5799.67 750.14 5800.02 750.558 5800.26C750.976 5800.5 751.464 5800.62 752.022 5800.62C752.384 5800.62 752.714 5800.57 753.013 5800.47C753.311 5800.36 753.569 5800.2 753.786 5799.99C754.003 5799.78 754.17 5799.53 754.285 5799.22L756.094 5799.55C755.949 5800.08 755.689 5800.54 755.314 5800.95C754.943 5801.34 754.476 5801.65 753.914 5801.87C753.356 5802.09 752.719 5802.2 752.003 5802.2ZM758.336 5802V5792.18H760.183V5793.74H760.285C760.464 5793.21 760.779 5792.8 761.231 5792.5C761.687 5792.19 762.203 5792.03 762.778 5792.03C762.897 5792.03 763.038 5792.04 763.2 5792.05C763.366 5792.06 763.496 5792.07 763.59 5792.08V5793.91C763.513 5793.89 763.377 5793.86 763.181 5793.84C762.985 5793.81 762.789 5793.79 762.593 5793.79C762.141 5793.79 761.738 5793.89 761.385 5794.08C761.035 5794.27 760.758 5794.53 760.554 5794.87C760.349 5795.2 760.247 5795.58 760.247 5796V5802H758.336ZM773.942 5792.18L770.381 5802H768.336L764.769 5792.18H766.821L769.308 5799.74H769.41L771.89 5792.18H773.942ZM779.635 5802.2C778.668 5802.2 777.835 5801.99 777.136 5801.58C776.442 5801.16 775.905 5800.57 775.525 5799.82C775.15 5799.06 774.963 5798.17 774.963 5797.15C774.963 5796.15 775.15 5795.26 775.525 5794.5C775.905 5793.73 776.433 5793.13 777.111 5792.7C777.792 5792.27 778.589 5792.05 779.501 5792.05C780.055 5792.05 780.592 5792.15 781.112 5792.33C781.632 5792.51 782.099 5792.8 782.512 5793.19C782.925 5793.58 783.251 5794.09 783.49 5794.72C783.729 5795.34 783.848 5796.1 783.848 5796.99V5797.67H776.043V5796.23H781.975C781.975 5795.73 781.873 5795.29 781.668 5794.9C781.464 5794.51 781.176 5794.2 780.805 5793.97C780.439 5793.75 780.008 5793.63 779.514 5793.63C778.977 5793.63 778.508 5793.76 778.108 5794.03C777.711 5794.29 777.405 5794.63 777.187 5795.05C776.974 5795.47 776.868 5795.92 776.868 5796.41V5797.53C776.868 5798.19 776.983 5798.75 777.213 5799.21C777.447 5799.67 777.773 5800.02 778.191 5800.26C778.608 5800.5 779.096 5800.62 779.655 5800.62C780.017 5800.62 780.347 5800.57 780.645 5800.47C780.944 5800.36 781.202 5800.2 781.419 5799.99C781.636 5799.78 781.802 5799.53 781.917 5799.22L783.726 5799.55C783.581 5800.08 783.322 5800.54 782.947 5800.95C782.576 5801.34 782.109 5801.65 781.547 5801.87C780.988 5802.09 780.351 5802.2 779.635 5802.2ZM789.644 5802.19C788.851 5802.19 788.144 5801.99 787.522 5801.58C786.904 5801.18 786.418 5800.59 786.064 5799.84C785.715 5799.08 785.54 5798.17 785.54 5797.11C785.54 5796.05 785.717 5795.14 786.071 5794.39C786.429 5793.63 786.919 5793.06 787.541 5792.65C788.163 5792.25 788.868 5792.05 789.657 5792.05C790.266 5792.05 790.756 5792.16 791.127 5792.36C791.502 5792.56 791.792 5792.8 791.996 5793.06C792.205 5793.33 792.367 5793.57 792.482 5793.77H792.597V5788.91H794.508V5802H792.642V5800.47H792.482C792.367 5800.68 792.201 5800.92 791.983 5801.19C791.77 5801.46 791.476 5801.69 791.101 5801.89C790.726 5802.09 790.24 5802.19 789.644 5802.19ZM790.066 5800.56C790.615 5800.56 791.08 5800.42 791.459 5800.13C791.843 5799.83 792.132 5799.43 792.328 5798.91C792.529 5798.39 792.629 5797.78 792.629 5797.09C792.629 5796.41 792.531 5795.81 792.335 5795.3C792.139 5794.79 791.851 5794.39 791.472 5794.11C791.093 5793.82 790.624 5793.68 790.066 5793.68C789.49 5793.68 789.011 5793.83 788.627 5794.12C788.244 5794.42 787.954 5794.83 787.758 5795.35C787.566 5795.86 787.471 5796.44 787.471 5797.09C787.471 5797.75 787.569 5798.34 787.765 5798.86C787.961 5799.39 788.25 5799.8 788.634 5800.11C789.022 5800.41 789.499 5800.56 790.066 5800.56Z" fill="white"/>
<path d="M1220.79 5790.61V5788.91H1230.92V5790.61H1226.84V5802H1224.87V5790.61H1220.79ZM1235.82 5802.2C1234.85 5802.2 1234.02 5801.99 1233.32 5801.58C1232.62 5801.16 1232.09 5800.57 1231.71 5799.82C1231.33 5799.06 1231.14 5798.17 1231.14 5797.15C1231.14 5796.15 1231.33 5795.26 1231.71 5794.5C1232.09 5793.73 1232.61 5793.13 1233.29 5792.7C1233.97 5792.27 1234.77 5792.05 1235.68 5792.05C1236.24 5792.05 1236.77 5792.15 1237.29 5792.33C1237.81 5792.51 1238.28 5792.8 1238.69 5793.19C1239.11 5793.58 1239.43 5794.09 1239.67 5794.72C1239.91 5795.34 1240.03 5796.1 1240.03 5796.99V5797.67H1232.22V5796.23H1238.16C1238.16 5795.73 1238.05 5795.29 1237.85 5794.9C1237.65 5794.51 1237.36 5794.2 1236.99 5793.97C1236.62 5793.75 1236.19 5793.63 1235.7 5793.63C1235.16 5793.63 1234.69 5793.76 1234.29 5794.03C1233.89 5794.29 1233.59 5794.63 1233.37 5795.05C1233.16 5795.47 1233.05 5795.92 1233.05 5796.41V5797.53C1233.05 5798.19 1233.16 5798.75 1233.39 5799.21C1233.63 5799.67 1233.95 5800.02 1234.37 5800.26C1234.79 5800.5 1235.28 5800.62 1235.84 5800.62C1236.2 5800.62 1236.53 5800.57 1236.83 5800.47C1237.13 5800.36 1237.38 5800.2 1237.6 5799.99C1237.82 5799.78 1237.98 5799.53 1238.1 5799.22L1239.91 5799.55C1239.76 5800.08 1239.5 5800.54 1239.13 5800.95C1238.76 5801.34 1238.29 5801.65 1237.73 5801.87C1237.17 5802.09 1236.53 5802.2 1235.82 5802.2ZM1242.15 5802V5792.18H1244V5793.74H1244.1C1244.28 5793.21 1244.59 5792.8 1245.05 5792.5C1245.5 5792.19 1246.02 5792.03 1246.59 5792.03C1246.71 5792.03 1246.85 5792.04 1247.01 5792.05C1247.18 5792.06 1247.31 5792.07 1247.4 5792.08V5793.91C1247.33 5793.89 1247.19 5793.86 1247 5793.84C1246.8 5793.81 1246.6 5793.79 1246.41 5793.79C1245.96 5793.79 1245.55 5793.89 1245.2 5794.08C1244.85 5794.27 1244.57 5794.53 1244.37 5794.87C1244.16 5795.2 1244.06 5795.58 1244.06 5796V5802H1242.15ZM1249.06 5802V5792.18H1250.89V5793.78H1251.01C1251.22 5793.24 1251.55 5792.82 1252.02 5792.51C1252.48 5792.21 1253.04 5792.05 1253.69 5792.05C1254.34 5792.05 1254.89 5792.21 1255.34 5792.51C1255.78 5792.82 1256.11 5793.24 1256.33 5793.78H1256.43C1256.66 5793.26 1257.04 5792.84 1257.55 5792.53C1258.06 5792.21 1258.67 5792.05 1259.38 5792.05C1260.27 5792.05 1260.99 5792.33 1261.55 5792.89C1262.12 5793.45 1262.4 5794.29 1262.4 5795.42V5802H1260.49V5795.6C1260.49 5794.93 1260.31 5794.45 1259.95 5794.15C1259.59 5793.85 1259.16 5793.7 1258.65 5793.7C1258.03 5793.7 1257.55 5793.89 1257.2 5794.28C1256.86 5794.66 1256.68 5795.15 1256.68 5795.74V5802H1254.78V5795.47C1254.78 5794.94 1254.61 5794.51 1254.28 5794.19C1253.95 5793.87 1253.52 5793.7 1252.98 5793.7C1252.62 5793.7 1252.29 5793.8 1251.98 5793.99C1251.68 5794.18 1251.43 5794.44 1251.24 5794.78C1251.06 5795.11 1250.97 5795.5 1250.97 5795.95V5802H1249.06ZM1272.32 5794.58L1270.59 5794.89C1270.52 5794.66 1270.4 5794.45 1270.25 5794.25C1270.09 5794.05 1269.88 5793.89 1269.62 5793.76C1269.36 5793.63 1269.03 5793.57 1268.63 5793.57C1268.09 5793.57 1267.64 5793.69 1267.27 5793.93C1266.91 5794.17 1266.73 5794.48 1266.73 5794.86C1266.73 5795.19 1266.85 5795.45 1267.09 5795.65C1267.34 5795.85 1267.73 5796.02 1268.27 5796.14L1269.83 5796.5C1270.73 5796.71 1271.41 5797.03 1271.85 5797.47C1272.29 5797.9 1272.52 5798.47 1272.52 5799.16C1272.52 5799.75 1272.34 5800.27 1272 5800.73C1271.67 5801.19 1271.2 5801.55 1270.59 5801.81C1269.99 5802.07 1269.29 5802.2 1268.5 5802.2C1267.4 5802.2 1266.5 5801.96 1265.81 5801.5C1265.12 5801.02 1264.69 5800.35 1264.53 5799.48L1266.38 5799.2C1266.49 5799.68 1266.73 5800.05 1267.09 5800.29C1267.45 5800.54 1267.91 5800.66 1268.49 5800.66C1269.11 5800.66 1269.62 5800.53 1269.99 5800.27C1270.37 5800 1270.55 5799.68 1270.55 5799.3C1270.55 5799 1270.44 5798.74 1270.21 5798.53C1269.98 5798.32 1269.63 5798.16 1269.17 5798.06L1267.5 5797.69C1266.59 5797.48 1265.91 5797.15 1265.47 5796.69C1265.04 5796.24 1264.82 5795.66 1264.82 5794.96C1264.82 5794.38 1264.98 5793.88 1265.31 5793.44C1265.63 5793.01 1266.08 5792.67 1266.65 5792.42C1267.22 5792.18 1267.87 5792.05 1268.61 5792.05C1269.67 5792.05 1270.51 5792.28 1271.12 5792.74C1271.72 5793.2 1272.13 5793.81 1272.32 5794.58ZM1282.24 5802.22C1281.62 5802.22 1281.05 5802.1 1280.55 5801.87C1280.05 5801.64 1279.65 5801.3 1279.35 5800.86C1279.07 5800.41 1278.92 5799.87 1278.92 5799.23C1278.92 5798.67 1279.03 5798.22 1279.24 5797.86C1279.45 5797.5 1279.74 5797.22 1280.1 5797.01C1280.47 5796.8 1280.87 5796.64 1281.32 5796.53C1281.76 5796.43 1282.22 5796.35 1282.69 5796.29C1283.27 5796.22 1283.75 5796.17 1284.12 5796.13C1284.48 5796.08 1284.75 5796 1284.92 5795.9C1285.08 5795.8 1285.17 5795.63 1285.17 5795.4V5795.36C1285.17 5794.8 1285.01 5794.37 1284.69 5794.06C1284.38 5793.75 1283.92 5793.6 1283.3 5793.6C1282.66 5793.6 1282.15 5793.74 1281.78 5794.03C1281.41 5794.31 1281.16 5794.62 1281.02 5794.97L1279.22 5794.56C1279.43 5793.96 1279.74 5793.48 1280.15 5793.12C1280.57 5792.74 1281.04 5792.48 1281.58 5792.31C1282.12 5792.14 1282.68 5792.05 1283.27 5792.05C1283.67 5792.05 1284.08 5792.1 1284.52 5792.19C1284.96 5792.28 1285.38 5792.45 1285.76 5792.69C1286.15 5792.94 1286.47 5793.28 1286.71 5793.74C1286.96 5794.18 1287.08 5794.76 1287.08 5795.48V5802H1285.22V5800.66H1285.14C1285.02 5800.9 1284.83 5801.15 1284.58 5801.39C1284.34 5801.62 1284.02 5801.82 1283.63 5801.98C1283.24 5802.14 1282.78 5802.22 1282.24 5802.22ZM1282.65 5800.68C1283.18 5800.68 1283.63 5800.58 1284.01 5800.37C1284.39 5800.16 1284.68 5799.89 1284.87 5799.55C1285.07 5799.21 1285.17 5798.85 1285.17 5798.46V5797.19C1285.1 5797.26 1284.97 5797.33 1284.78 5797.38C1284.58 5797.44 1284.36 5797.49 1284.12 5797.53C1283.87 5797.57 1283.63 5797.61 1283.39 5797.64C1283.16 5797.67 1282.96 5797.7 1282.81 5797.72C1282.44 5797.76 1282.1 5797.84 1281.79 5797.95C1281.49 5798.06 1281.24 5798.22 1281.06 5798.43C1280.88 5798.64 1280.79 5798.91 1280.79 5799.25C1280.79 5799.72 1280.97 5800.08 1281.32 5800.33C1281.67 5800.56 1282.11 5800.68 1282.65 5800.68ZM1291.54 5796.17V5802H1289.63V5792.18H1291.46V5793.78H1291.58C1291.81 5793.26 1292.16 5792.84 1292.65 5792.53C1293.13 5792.21 1293.74 5792.05 1294.48 5792.05C1295.15 5792.05 1295.74 5792.19 1296.24 5792.48C1296.74 5792.75 1297.13 5793.17 1297.41 5793.72C1297.68 5794.27 1297.82 5794.95 1297.82 5795.75V5802H1295.91V5795.99C1295.91 5795.27 1295.73 5794.72 1295.36 5794.32C1294.99 5793.91 1294.48 5793.71 1293.83 5793.71C1293.38 5793.71 1292.99 5793.81 1292.65 5794C1292.3 5794.19 1292.03 5794.47 1291.83 5794.84C1291.64 5795.21 1291.54 5795.65 1291.54 5796.17ZM1304.06 5802.19C1303.27 5802.19 1302.56 5801.99 1301.94 5801.58C1301.32 5801.18 1300.84 5800.59 1300.48 5799.84C1300.13 5799.08 1299.96 5798.17 1299.96 5797.11C1299.96 5796.05 1300.13 5795.14 1300.49 5794.39C1300.85 5793.63 1301.34 5793.06 1301.96 5792.65C1302.58 5792.25 1303.29 5792.05 1304.07 5792.05C1304.68 5792.05 1305.17 5792.16 1305.54 5792.36C1305.92 5792.56 1306.21 5792.8 1306.41 5793.06C1306.62 5793.33 1306.78 5793.57 1306.9 5793.77H1307.01V5788.91H1308.93V5802H1307.06V5800.47H1306.9C1306.78 5800.68 1306.62 5800.92 1306.4 5801.19C1306.19 5801.46 1305.89 5801.69 1305.52 5801.89C1305.14 5802.09 1304.66 5802.19 1304.06 5802.19ZM1304.48 5800.56C1305.03 5800.56 1305.5 5800.42 1305.88 5800.13C1306.26 5799.83 1306.55 5799.43 1306.75 5798.91C1306.95 5798.39 1307.05 5797.78 1307.05 5797.09C1307.05 5796.41 1306.95 5795.81 1306.75 5795.3C1306.56 5794.79 1306.27 5794.39 1305.89 5794.11C1305.51 5793.82 1305.04 5793.68 1304.48 5793.68C1303.91 5793.68 1303.43 5793.83 1303.05 5794.12C1302.66 5794.42 1302.37 5794.83 1302.18 5795.35C1301.98 5795.86 1301.89 5796.44 1301.89 5797.09C1301.89 5797.75 1301.99 5798.34 1302.18 5798.86C1302.38 5799.39 1302.67 5799.8 1303.05 5800.11C1303.44 5800.41 1303.92 5800.56 1304.48 5800.56ZM1327.44 5793.17H1325.45C1325.37 5792.74 1325.23 5792.37 1325.02 5792.04C1324.81 5791.72 1324.56 5791.44 1324.25 5791.22C1323.95 5790.99 1323.61 5790.82 1323.24 5790.71C1322.87 5790.59 1322.47 5790.53 1322.06 5790.53C1321.3 5790.53 1320.63 5790.72 1320.03 5791.1C1319.44 5791.48 1318.97 5792.04 1318.62 5792.77C1318.28 5793.5 1318.11 5794.4 1318.11 5795.45C1318.11 5796.52 1318.28 5797.42 1318.62 5798.15C1318.97 5798.88 1319.44 5799.44 1320.04 5799.81C1320.63 5800.19 1321.3 5800.38 1322.05 5800.38C1322.46 5800.38 1322.85 5800.32 1323.23 5800.21C1323.6 5800.1 1323.94 5799.93 1324.24 5799.71C1324.54 5799.48 1324.8 5799.21 1325.01 5798.89C1325.22 5798.57 1325.37 5798.2 1325.45 5797.78L1327.44 5797.79C1327.34 5798.43 1327.13 5799.02 1326.82 5799.56C1326.52 5800.1 1326.13 5800.57 1325.65 5800.96C1325.18 5801.35 1324.64 5801.65 1324.03 5801.86C1323.42 5802.07 1322.76 5802.18 1322.04 5802.18C1320.9 5802.18 1319.89 5801.91 1319.01 5801.37C1318.12 5800.83 1317.42 5800.06 1316.91 5799.05C1316.4 5798.05 1316.15 5796.85 1316.15 5795.45C1316.15 5794.06 1316.4 5792.86 1316.92 5791.86C1317.43 5790.85 1318.13 5790.08 1319.01 5789.54C1319.9 5789 1320.91 5788.73 1322.04 5788.73C1322.73 5788.73 1323.38 5788.83 1323.98 5789.03C1324.58 5789.23 1325.13 5789.52 1325.61 5789.9C1326.09 5790.28 1326.49 5790.74 1326.8 5791.29C1327.12 5791.84 1327.33 5792.46 1327.44 5793.17ZM1333.79 5802.2C1332.87 5802.2 1332.07 5801.99 1331.38 5801.57C1330.69 5801.14 1330.16 5800.55 1329.78 5799.79C1329.4 5799.04 1329.21 5798.15 1329.21 5797.14C1329.21 5796.12 1329.4 5795.23 1329.78 5794.46C1330.16 5793.7 1330.69 5793.11 1331.38 5792.69C1332.07 5792.26 1332.87 5792.05 1333.79 5792.05C1334.71 5792.05 1335.51 5792.26 1336.2 5792.69C1336.89 5793.11 1337.42 5793.7 1337.8 5794.46C1338.18 5795.23 1338.37 5796.12 1338.37 5797.14C1338.37 5798.15 1338.18 5799.04 1337.8 5799.79C1337.42 5800.55 1336.89 5801.14 1336.2 5801.57C1335.51 5801.99 1334.71 5802.2 1333.79 5802.2ZM1333.8 5800.59C1334.39 5800.59 1334.89 5800.44 1335.28 5800.12C1335.67 5799.81 1335.96 5799.39 1336.15 5798.86C1336.34 5798.34 1336.44 5797.76 1336.44 5797.13C1336.44 5796.5 1336.34 5795.93 1336.15 5795.4C1335.96 5794.87 1335.67 5794.45 1335.28 5794.13C1334.89 5793.81 1334.39 5793.65 1333.8 5793.65C1333.2 5793.65 1332.7 5793.81 1332.3 5794.13C1331.91 5794.45 1331.62 5794.87 1331.42 5795.4C1331.24 5795.93 1331.14 5796.5 1331.14 5797.13C1331.14 5797.76 1331.24 5798.34 1331.42 5798.86C1331.62 5799.39 1331.91 5799.81 1332.3 5800.12C1332.7 5800.44 1333.2 5800.59 1333.8 5800.59ZM1342.41 5796.17V5802H1340.5V5792.18H1342.33V5793.78H1342.46C1342.68 5793.26 1343.04 5792.84 1343.52 5792.53C1344 5792.21 1344.61 5792.05 1345.35 5792.05C1346.02 5792.05 1346.61 5792.19 1347.11 5792.48C1347.61 5792.75 1348 5793.17 1348.28 5793.72C1348.56 5794.27 1348.69 5794.95 1348.69 5795.75V5802H1346.78V5795.99C1346.78 5795.27 1346.6 5794.72 1346.23 5794.32C1345.86 5793.91 1345.35 5793.71 1344.7 5793.71C1344.26 5793.71 1343.86 5793.81 1343.52 5794C1343.18 5794.19 1342.91 5794.47 1342.7 5794.84C1342.51 5795.21 1342.41 5795.65 1342.41 5796.17ZM1354.93 5802.19C1354.14 5802.19 1353.43 5801.99 1352.81 5801.58C1352.19 5801.18 1351.71 5800.59 1351.35 5799.84C1351 5799.08 1350.83 5798.17 1350.83 5797.11C1350.83 5796.05 1351.01 5795.14 1351.36 5794.39C1351.72 5793.63 1352.21 5793.06 1352.83 5792.65C1353.45 5792.25 1354.16 5792.05 1354.95 5792.05C1355.56 5792.05 1356.05 5792.16 1356.42 5792.36C1356.79 5792.56 1357.08 5792.8 1357.29 5793.06C1357.49 5793.33 1357.66 5793.57 1357.77 5793.77H1357.89V5788.91H1359.8V5802H1357.93V5800.47H1357.77C1357.66 5800.68 1357.49 5800.92 1357.27 5801.19C1357.06 5801.46 1356.77 5801.69 1356.39 5801.89C1356.02 5802.09 1355.53 5802.19 1354.93 5802.19ZM1355.35 5800.56C1355.9 5800.56 1356.37 5800.42 1356.75 5800.13C1357.13 5799.83 1357.42 5799.43 1357.62 5798.91C1357.82 5798.39 1357.92 5797.78 1357.92 5797.09C1357.92 5796.41 1357.82 5795.81 1357.62 5795.3C1357.43 5794.79 1357.14 5794.39 1356.76 5794.11C1356.38 5793.82 1355.91 5793.68 1355.35 5793.68C1354.78 5793.68 1354.3 5793.83 1353.92 5794.12C1353.53 5794.42 1353.24 5794.83 1353.05 5795.35C1352.86 5795.86 1352.76 5796.44 1352.76 5797.09C1352.76 5797.75 1352.86 5798.34 1353.05 5798.86C1353.25 5799.39 1353.54 5799.8 1353.92 5800.11C1354.31 5800.41 1354.79 5800.56 1355.35 5800.56ZM1367.11 5792.18V5793.72H1361.75V5792.18H1367.11ZM1363.18 5789.83H1365.09V5799.12C1365.09 5799.49 1365.15 5799.77 1365.26 5799.95C1365.37 5800.14 1365.51 5800.26 1365.69 5800.33C1365.87 5800.4 1366.06 5800.43 1366.27 5800.43C1366.42 5800.43 1366.56 5800.42 1366.67 5800.4C1366.79 5800.37 1366.88 5800.36 1366.94 5800.34L1367.29 5801.92C1367.18 5801.97 1367.02 5802.01 1366.81 5802.05C1366.61 5802.1 1366.35 5802.12 1366.05 5802.13C1365.54 5802.14 1365.08 5802.05 1364.64 5801.86C1364.21 5801.67 1363.85 5801.38 1363.59 5800.99C1363.32 5800.6 1363.18 5800.11 1363.18 5799.51V5789.83ZM1369.22 5802V5792.18H1371.13V5802H1369.22ZM1370.19 5790.67C1369.86 5790.67 1369.57 5790.56 1369.33 5790.33C1369.1 5790.11 1368.98 5789.84 1368.98 5789.53C1368.98 5789.21 1369.1 5788.95 1369.33 5788.72C1369.57 5788.5 1369.86 5788.38 1370.19 5788.38C1370.52 5788.38 1370.8 5788.5 1371.04 5788.72C1371.28 5788.95 1371.4 5789.21 1371.4 5789.53C1371.4 5789.84 1371.28 5790.11 1371.04 5790.33C1370.8 5790.56 1370.52 5790.67 1370.19 5790.67ZM1377.84 5802.2C1376.92 5802.2 1376.12 5801.99 1375.43 5801.57C1374.74 5801.14 1374.21 5800.55 1373.83 5799.79C1373.45 5799.04 1373.26 5798.15 1373.26 5797.14C1373.26 5796.12 1373.45 5795.23 1373.83 5794.46C1374.21 5793.7 1374.74 5793.11 1375.43 5792.69C1376.12 5792.26 1376.92 5792.05 1377.84 5792.05C1378.76 5792.05 1379.56 5792.26 1380.25 5792.69C1380.94 5793.11 1381.47 5793.7 1381.85 5794.46C1382.23 5795.23 1382.42 5796.12 1382.42 5797.14C1382.42 5798.15 1382.23 5799.04 1381.85 5799.79C1381.47 5800.55 1380.94 5801.14 1380.25 5801.57C1379.56 5801.99 1378.76 5802.2 1377.84 5802.2ZM1377.85 5800.59C1378.44 5800.59 1378.94 5800.44 1379.33 5800.12C1379.72 5799.81 1380.01 5799.39 1380.2 5798.86C1380.39 5798.34 1380.49 5797.76 1380.49 5797.13C1380.49 5796.5 1380.39 5795.93 1380.2 5795.4C1380.01 5794.87 1379.72 5794.45 1379.33 5794.13C1378.94 5793.81 1378.44 5793.65 1377.85 5793.65C1377.25 5793.65 1376.75 5793.81 1376.35 5794.13C1375.96 5794.45 1375.67 5794.87 1375.48 5795.4C1375.29 5795.93 1375.19 5796.5 1375.19 5797.13C1375.19 5797.76 1375.29 5798.34 1375.48 5798.86C1375.67 5799.39 1375.96 5799.81 1376.35 5800.12C1376.75 5800.44 1377.25 5800.59 1377.85 5800.59ZM1386.46 5796.17V5802H1384.55V5792.18H1386.38V5793.78H1386.51C1386.73 5793.26 1387.09 5792.84 1387.57 5792.53C1388.05 5792.21 1388.66 5792.05 1389.4 5792.05C1390.07 5792.05 1390.66 5792.19 1391.16 5792.48C1391.66 5792.75 1392.05 5793.17 1392.33 5793.72C1392.61 5794.27 1392.75 5794.95 1392.75 5795.75V5802H1390.83V5795.99C1390.83 5795.27 1390.65 5794.72 1390.28 5794.32C1389.91 5793.91 1389.4 5793.71 1388.75 5793.71C1388.31 5793.71 1387.91 5793.81 1387.57 5794C1387.23 5794.19 1386.96 5794.47 1386.76 5794.84C1386.56 5795.21 1386.46 5795.65 1386.46 5796.17ZM1402.67 5794.58L1400.93 5794.89C1400.86 5794.66 1400.75 5794.45 1400.59 5794.25C1400.43 5794.05 1400.23 5793.89 1399.96 5793.76C1399.7 5793.63 1399.37 5793.57 1398.97 5793.57C1398.43 5793.57 1397.98 5793.69 1397.62 5793.93C1397.25 5794.17 1397.07 5794.48 1397.07 5794.86C1397.07 5795.19 1397.19 5795.45 1397.44 5795.65C1397.68 5795.85 1398.07 5796.02 1398.61 5796.14L1400.17 5796.5C1401.08 5796.71 1401.75 5797.03 1402.19 5797.47C1402.64 5797.9 1402.86 5798.47 1402.86 5799.16C1402.86 5799.75 1402.69 5800.27 1402.35 5800.73C1402.01 5801.19 1401.54 5801.55 1400.93 5801.81C1400.33 5802.07 1399.64 5802.2 1398.84 5802.2C1397.74 5802.2 1396.85 5801.96 1396.15 5801.5C1395.46 5801.02 1395.03 5800.35 1394.87 5799.48L1396.72 5799.2C1396.84 5799.68 1397.07 5800.05 1397.43 5800.29C1397.79 5800.54 1398.25 5800.66 1398.83 5800.66C1399.46 5800.66 1399.96 5800.53 1400.33 5800.27C1400.71 5800 1400.89 5799.68 1400.89 5799.3C1400.89 5799 1400.78 5798.74 1400.55 5798.53C1400.32 5798.32 1399.98 5798.16 1399.51 5798.06L1397.85 5797.69C1396.93 5797.48 1396.25 5797.15 1395.81 5796.69C1395.38 5796.24 1395.16 5795.66 1395.16 5794.96C1395.16 5794.38 1395.32 5793.88 1395.65 5793.44C1395.97 5793.01 1396.42 5792.67 1396.99 5792.42C1397.56 5792.18 1398.21 5792.05 1398.95 5792.05C1400.01 5792.05 1400.85 5792.28 1401.46 5792.74C1402.07 5793.2 1402.47 5793.81 1402.67 5794.58Z" fill="white"/>
<circle cx="1417" cy="5795" r="2" fill="#A6A6A6"/>
<path d="M1430.44 5802V5788.91H1435.1C1436.12 5788.91 1436.97 5789.09 1437.64 5789.47C1438.3 5789.84 1438.81 5790.34 1439.14 5790.99C1439.47 5791.63 1439.64 5792.35 1439.64 5793.15C1439.64 5793.95 1439.47 5794.68 1439.13 5795.32C1438.8 5795.96 1438.3 5796.47 1437.62 5796.84C1436.95 5797.21 1436.11 5797.4 1435.1 5797.4H1431.89V5795.72H1434.92C1435.56 5795.72 1436.08 5795.61 1436.49 5795.39C1436.89 5795.16 1437.18 5794.86 1437.37 5794.47C1437.55 5794.08 1437.65 5793.64 1437.65 5793.15C1437.65 5792.65 1437.55 5792.21 1437.37 5791.83C1437.18 5791.45 1436.88 5791.15 1436.48 5790.93C1436.08 5790.71 1435.55 5790.6 1434.89 5790.6H1432.41V5802H1430.44ZM1441.8 5802V5792.18H1443.65V5793.74H1443.75C1443.93 5793.21 1444.24 5792.8 1444.69 5792.5C1445.15 5792.19 1445.67 5792.03 1446.24 5792.03C1446.36 5792.03 1446.5 5792.04 1446.66 5792.05C1446.83 5792.06 1446.96 5792.07 1447.05 5792.08V5793.91C1446.98 5793.89 1446.84 5793.86 1446.64 5793.84C1446.45 5793.81 1446.25 5793.79 1446.06 5793.79C1445.6 5793.79 1445.2 5793.89 1444.85 5794.08C1444.5 5794.27 1444.22 5794.53 1444.02 5794.87C1443.81 5795.2 1443.71 5795.58 1443.71 5796V5802H1441.8ZM1448.71 5802V5792.18H1450.62V5802H1448.71ZM1449.67 5790.67C1449.34 5790.67 1449.05 5790.56 1448.82 5790.33C1448.58 5790.11 1448.46 5789.84 1448.46 5789.53C1448.46 5789.21 1448.58 5788.95 1448.82 5788.72C1449.05 5788.5 1449.34 5788.38 1449.67 5788.38C1450 5788.38 1450.29 5788.5 1450.52 5788.72C1450.76 5788.95 1450.88 5789.21 1450.88 5789.53C1450.88 5789.84 1450.76 5790.11 1450.52 5790.33C1450.29 5790.56 1450 5790.67 1449.67 5790.67ZM1461.59 5792.18L1458.03 5802H1455.98L1452.42 5792.18H1454.47L1456.95 5799.74H1457.06L1459.54 5792.18H1461.59ZM1465.96 5802.22C1465.34 5802.22 1464.78 5802.1 1464.27 5801.87C1463.77 5801.64 1463.37 5801.3 1463.08 5800.86C1462.79 5800.41 1462.64 5799.87 1462.64 5799.23C1462.64 5798.67 1462.75 5798.22 1462.96 5797.86C1463.18 5797.5 1463.46 5797.22 1463.83 5797.01C1464.19 5796.8 1464.59 5796.64 1465.04 5796.53C1465.49 5796.43 1465.94 5796.35 1466.41 5796.29C1467 5796.22 1467.47 5796.17 1467.84 5796.13C1468.21 5796.08 1468.47 5796 1468.64 5795.9C1468.8 5795.8 1468.89 5795.63 1468.89 5795.4V5795.36C1468.89 5794.8 1468.73 5794.37 1468.41 5794.06C1468.1 5793.75 1467.64 5793.6 1467.02 5793.6C1466.38 5793.6 1465.87 5793.74 1465.5 5794.03C1465.13 5794.31 1464.88 5794.62 1464.74 5794.97L1462.94 5794.56C1463.16 5793.96 1463.47 5793.48 1463.88 5793.12C1464.29 5792.74 1464.77 5792.48 1465.3 5792.31C1465.84 5792.14 1466.4 5792.05 1467 5792.05C1467.39 5792.05 1467.8 5792.1 1468.24 5792.19C1468.69 5792.28 1469.1 5792.45 1469.48 5792.69C1469.87 5792.94 1470.19 5793.28 1470.43 5793.74C1470.68 5794.18 1470.81 5794.76 1470.81 5795.48V5802H1468.94V5800.66H1468.86C1468.74 5800.9 1468.55 5801.15 1468.31 5801.39C1468.06 5801.62 1467.74 5801.82 1467.35 5801.98C1466.97 5802.14 1466.5 5802.22 1465.96 5802.22ZM1466.38 5800.68C1466.9 5800.68 1467.36 5800.58 1467.73 5800.37C1468.11 5800.16 1468.4 5799.89 1468.59 5799.55C1468.79 5799.21 1468.89 5798.85 1468.89 5798.46V5797.19C1468.83 5797.26 1468.69 5797.33 1468.5 5797.38C1468.31 5797.44 1468.09 5797.49 1467.84 5797.53C1467.59 5797.57 1467.35 5797.61 1467.12 5797.64C1466.88 5797.67 1466.69 5797.7 1466.53 5797.72C1466.16 5797.76 1465.82 5797.84 1465.51 5797.95C1465.21 5798.06 1464.97 5798.22 1464.78 5798.43C1464.61 5798.64 1464.52 5798.91 1464.52 5799.25C1464.52 5799.72 1464.69 5800.08 1465.04 5800.33C1465.39 5800.56 1465.83 5800.68 1466.38 5800.68ZM1477.49 5802.2C1476.54 5802.2 1475.72 5801.98 1475.03 5801.55C1474.35 5801.12 1473.83 5800.52 1473.46 5799.76C1473.09 5798.99 1472.91 5798.12 1472.91 5797.14C1472.91 5796.14 1473.1 5795.26 1473.47 5794.5C1473.85 5793.73 1474.38 5793.13 1475.06 5792.7C1475.74 5792.27 1476.54 5792.05 1477.47 5792.05C1478.21 5792.05 1478.88 5792.19 1479.46 5792.47C1480.05 5792.74 1480.52 5793.13 1480.87 5793.62C1481.24 5794.11 1481.45 5794.69 1481.52 5795.35H1479.66C1479.56 5794.89 1479.32 5794.5 1478.96 5794.16C1478.59 5793.83 1478.11 5793.66 1477.5 5793.66C1476.97 5793.66 1476.5 5793.81 1476.1 5794.09C1475.7 5794.36 1475.39 5794.76 1475.17 5795.28C1474.95 5795.79 1474.84 5796.39 1474.84 5797.09C1474.84 5797.81 1474.95 5798.42 1475.17 5798.94C1475.38 5799.46 1475.69 5799.87 1476.09 5800.15C1476.49 5800.44 1476.96 5800.58 1477.5 5800.58C1477.86 5800.58 1478.19 5800.51 1478.48 5800.38C1478.78 5800.25 1479.03 5800.05 1479.23 5799.8C1479.44 5799.55 1479.58 5799.25 1479.66 5798.89H1481.52C1481.45 5799.53 1481.25 5800.1 1480.9 5800.59C1480.56 5801.09 1480.09 5801.48 1479.51 5801.77C1478.94 5802.06 1478.26 5802.2 1477.49 5802.2ZM1484.77 5805.68C1484.49 5805.68 1484.23 5805.66 1483.99 5805.61C1483.76 5805.57 1483.58 5805.52 1483.47 5805.47L1483.93 5803.9C1484.28 5804 1484.59 5804.04 1484.86 5804.03C1485.13 5804.01 1485.38 5803.91 1485.58 5803.72C1485.8 5803.53 1485.98 5803.21 1486.15 5802.78L1486.38 5802.13L1482.79 5792.18H1484.84L1487.32 5799.8H1487.42L1489.91 5792.18H1491.96L1487.92 5803.31C1487.73 5803.82 1487.49 5804.25 1487.2 5804.61C1486.91 5804.97 1486.57 5805.23 1486.17 5805.41C1485.77 5805.59 1485.3 5805.68 1484.77 5805.68ZM1498.68 5802V5788.91H1503.34C1504.36 5788.91 1505.2 5789.09 1505.87 5789.47C1506.54 5789.84 1507.04 5790.34 1507.38 5790.99C1507.71 5791.63 1507.87 5792.35 1507.87 5793.15C1507.87 5793.95 1507.71 5794.68 1507.37 5795.32C1507.04 5795.96 1506.53 5796.47 1505.86 5796.84C1505.19 5797.21 1504.35 5797.4 1503.34 5797.4H1500.13V5795.72H1503.16C1503.8 5795.72 1504.32 5795.61 1504.72 5795.39C1505.12 5795.16 1505.42 5794.86 1505.61 5794.47C1505.79 5794.08 1505.89 5793.64 1505.89 5793.15C1505.89 5792.65 1505.79 5792.21 1505.61 5791.83C1505.42 5791.45 1505.12 5791.15 1504.72 5790.93C1504.32 5790.71 1503.79 5790.6 1503.13 5790.6H1500.65V5802H1498.68ZM1514.05 5802.2C1513.13 5802.2 1512.33 5801.99 1511.64 5801.57C1510.95 5801.14 1510.42 5800.55 1510.04 5799.79C1509.66 5799.04 1509.47 5798.15 1509.47 5797.14C1509.47 5796.12 1509.66 5795.23 1510.04 5794.46C1510.42 5793.7 1510.95 5793.11 1511.64 5792.69C1512.33 5792.26 1513.13 5792.05 1514.05 5792.05C1514.97 5792.05 1515.77 5792.26 1516.46 5792.69C1517.15 5793.11 1517.68 5793.7 1518.06 5794.46C1518.44 5795.23 1518.63 5796.12 1518.63 5797.14C1518.63 5798.15 1518.44 5799.04 1518.06 5799.79C1517.68 5800.55 1517.15 5801.14 1516.46 5801.57C1515.77 5801.99 1514.97 5802.2 1514.05 5802.2ZM1514.06 5800.59C1514.65 5800.59 1515.15 5800.44 1515.54 5800.12C1515.93 5799.81 1516.22 5799.39 1516.41 5798.86C1516.6 5798.34 1516.7 5797.76 1516.7 5797.13C1516.7 5796.5 1516.6 5795.93 1516.41 5795.4C1516.22 5794.87 1515.93 5794.45 1515.54 5794.13C1515.15 5793.81 1514.65 5793.65 1514.06 5793.65C1513.45 5793.65 1512.96 5793.81 1512.56 5794.13C1512.17 5794.45 1511.88 5794.87 1511.68 5795.4C1511.5 5795.93 1511.4 5796.5 1511.4 5797.13C1511.4 5797.76 1511.5 5798.34 1511.68 5798.86C1511.88 5799.39 1512.17 5799.81 1512.56 5800.12C1512.96 5800.44 1513.45 5800.59 1514.06 5800.59ZM1522.67 5788.91V5802H1520.76V5788.91H1522.67ZM1525.24 5802V5792.18H1527.15V5802H1525.24ZM1526.21 5790.67C1525.87 5790.67 1525.59 5790.56 1525.35 5790.33C1525.12 5790.11 1525 5789.84 1525 5789.53C1525 5789.21 1525.12 5788.95 1525.35 5788.72C1525.59 5788.5 1525.87 5788.38 1526.21 5788.38C1526.54 5788.38 1526.82 5788.5 1527.06 5788.72C1527.3 5788.95 1527.42 5789.21 1527.42 5789.53C1527.42 5789.84 1527.3 5790.11 1527.06 5790.33C1526.82 5790.56 1526.54 5790.67 1526.21 5790.67ZM1533.86 5802.2C1532.91 5802.2 1532.09 5801.98 1531.41 5801.55C1530.72 5801.12 1530.2 5800.52 1529.83 5799.76C1529.47 5798.99 1529.28 5798.12 1529.28 5797.14C1529.28 5796.14 1529.47 5795.26 1529.85 5794.5C1530.22 5793.73 1530.75 5793.13 1531.43 5792.7C1532.11 5792.27 1532.92 5792.05 1533.84 5792.05C1534.59 5792.05 1535.25 5792.19 1535.84 5792.47C1536.42 5792.74 1536.89 5793.13 1537.25 5793.62C1537.61 5794.11 1537.83 5794.69 1537.89 5795.35H1536.03C1535.93 5794.89 1535.7 5794.5 1535.33 5794.16C1534.97 5793.83 1534.48 5793.66 1533.87 5793.66C1533.34 5793.66 1532.87 5793.81 1532.47 5794.09C1532.08 5794.36 1531.77 5794.76 1531.55 5795.28C1531.32 5795.79 1531.21 5796.39 1531.21 5797.09C1531.21 5797.81 1531.32 5798.42 1531.54 5798.94C1531.76 5799.46 1532.06 5799.87 1532.46 5800.15C1532.86 5800.44 1533.33 5800.58 1533.87 5800.58C1534.23 5800.58 1534.56 5800.51 1534.86 5800.38C1535.16 5800.25 1535.4 5800.05 1535.6 5799.8C1535.81 5799.55 1535.95 5799.25 1536.03 5798.89H1537.89C1537.83 5799.53 1537.62 5800.1 1537.27 5800.59C1536.93 5801.09 1536.47 5801.48 1535.89 5801.77C1535.31 5802.06 1534.64 5802.2 1533.86 5802.2ZM1541.15 5805.68C1540.86 5805.68 1540.6 5805.66 1540.37 5805.61C1540.13 5805.57 1539.96 5805.52 1539.84 5805.47L1540.3 5803.9C1540.65 5804 1540.96 5804.04 1541.23 5804.03C1541.51 5804.01 1541.75 5803.91 1541.96 5803.72C1542.17 5803.53 1542.36 5803.21 1542.52 5802.78L1542.76 5802.13L1539.16 5792.18H1541.21L1543.7 5799.8H1543.8L1546.28 5792.18H1548.34L1544.29 5803.31C1544.1 5803.82 1543.86 5804.25 1543.57 5804.61C1543.28 5804.97 1542.94 5805.23 1542.54 5805.41C1542.14 5805.59 1541.67 5805.68 1541.15 5805.68Z" fill="white"/>
</g>
<defs>
<filter id="filter0_f_0_1" x="-953" y="1176" width="2634" height="2634" filterUnits="userSpaceOnUse" color-interpolation-filters="sRGB">
<feFlood flood-opacity="0" result="BackgroundImageFix"/>
<feBlend mode="normal" in="SourceGraphic" in2="BackgroundImageFix" result="shape"/>
<feGaussianBlur stdDeviation="500" result="effect1_foregroundBlur_0_1"/>
</filter>
<filter id="filter1_f_0_1" x="-1076" y="-1280" width="2634" height="2634" filterUnits="userSpaceOnUse" color-interpolation-filters="sRGB">
<feFlood flood-opacity="0" result="BackgroundImageFix"/>
<feBlend mode="normal" in="SourceGraphic" in2="BackgroundImageFix" result="shape"/>
<feGaussianBlur stdDeviation="500" result="effect1_foregroundBlur_0_1"/>
</filter>
<filter id="filter2_f_0_1" x="364" y="-730" width="2634" height="2634" filterUnits="userSpaceOnUse" color-interpolation-filters="sRGB">
<feFlood flood-opacity="0" result="BackgroundImageFix"/>
<feBlend mode="normal" in="SourceGraphic" in2="BackgroundImageFix" result="shape"/>
<feGaussianBlur stdDeviation="500" result="effect1_foregroundBlur_0_1"/>
</filter>
<filter id="filter3_f_0_1" x="364" y="2278" width="2634" height="2634" filterUnits="userSpaceOnUse" color-interpolation-filters="sRGB">
<feFlood flood-opacity="0" result="BackgroundImageFix"/>
<feBlend mode="normal" in="SourceGraphic" in2="BackgroundImageFix" result="shape"/>
<feGaussianBlur stdDeviation="500" result="effect1_foregroundBlur_0_1"/>
</filter>
<filter id="filter4_f_0_1" x="-383" y="-781" width="2634" height="2634" filterUnits="userSpaceOnUse" color-interpolation-filters="sRGB">
<feFlood flood-opacity="0" result="BackgroundImageFix"/>
<feBlend mode="normal" in="SourceGraphic" in2="BackgroundImageFix" result="shape"/>
<feGaussianBlur stdDeviation="500" result="effect1_foregroundBlur_0_1"/>
</filter>
<filter id="filter5_f_0_1" x="-178" y="-1364" width="2634" height="2634" filterUnits="userSpaceOnUse" color-interpolation-filters="sRGB">
<feFlood flood-opacity="0" result="BackgroundImageFix"/>
<feBlend mode="normal" in="SourceGraphic" in2="BackgroundImageFix" result="shape"/>
<feGaussianBlur stdDeviation="500" result="effect1_foregroundBlur_0_1"/>
</filter>
<clipPath id="clip0_0_1">
<rect width="1922" height="5850" fill="white"/>
</clipPath>
</defs>
</svg>
